<?xml version="1.0" encoding="UTF-8" standalone="no"?><!DOCTYPE svg PUBLIC "-//W3C//DTD SVG 1.1//EN" "http://www.w3.org/Graphics/SVG/1.1/DTD/svg11.dtd"><svg width="100%" height="100%" viewBox="0 0 1000 1000" version="1.1" xmlns="http://www.w3.org/2000/svg" xmlns:xlink="http://www.w3.org/1999/xlink" xml:space="preserve" xmlns:serif="http://www.serif.com/" style="fill-rule:evenodd;clip-rule:evenodd;stroke-linejoin:round;stroke-miterlimit:2;"><rect id="Artboard1" x="0" y="0" width="1000" height="1000" style="fill:none;"/><clipPath id="_clip1"><rect x="0" y="0" width="1000" height="1000"/></clipPath><g clip-path="url(#_clip1)"><g id="Earth-Interior-MiniPlanet" serif:id="Earth Interior MiniPlanet"><circle cx="500" cy="500" r="500" style="fill:url(#_Radial2);"/><path d="M500,0c275.958,0 500,224.042 500,500c-0,275.958 -224.042,500 -500,500c-275.958,0 -500,-224.042 -500,-500c-0,-275.958 224.042,-500 500,-500Zm-0,2c274.854,0 498,223.146 498,498c-0,274.854 -223.146,498 -498,498c-274.854,0 -498,-223.146 -498,-498c-0,-274.854 223.146,-498 498,-498Z" style="fill:#678c0c;"/></g></g><defs><radialGradient id="_Radial2" cx="0" cy="0" r="1" gradientUnits="userSpaceOnUse" gradientTransform="matrix(500,0,0,500,500,500)"><stop offset="0" style="stop-color:#ffeac2;stop-opacity:1"/><stop offset="0.19" style="stop-color:#fff;stop-opacity:1"/><stop offset="0.2" style="stop-color:#ffe4b3;stop-opacity:1"/><stop offset="0.26" style="stop-color:#fec667;stop-opacity:1"/><stop offset="0.45" style="stop-color:#feab22;stop-opacity:1"/><stop offset="0.69" style="stop-color:#fe8400;stop-opacity:1"/><stop offset="0.69" style="stop-color:#fe8406;stop-opacity:1"/><stop offset="0.78" style="stop-color:#e43700;stop-opacity:1"/><stop offset="0.82" style="stop-color:#dc2e00;stop-opacity:1"/><stop offset="0.85" style="stop-color:#d02d0b;stop-opacity:1"/><stop offset="0.92" style="stop-color:#9e380f;stop-opacity:1"/><stop offset="1" style="stop-color:#6c4713;stop-opacity:1"/></radialGradient></defs></svg>