<?xml version="1.0" encoding="UTF-8" standalone="no"?><!DOCTYPE svg PUBLIC "-//W3C//DTD SVG 1.1//EN" "http://www.w3.org/Graphics/SVG/1.1/DTD/svg11.dtd"><svg width="100%" height="100%" viewBox="0 0 1000 1000" version="1.1" xmlns="http://www.w3.org/2000/svg" xmlns:xlink="http://www.w3.org/1999/xlink" xml:space="preserve" xmlns:serif="http://www.serif.com/" style="fill-rule:evenodd;clip-rule:evenodd;stroke-linejoin:round;stroke-miterlimit:2;"><rect id="Artboard1" x="0" y="0" width="1000" height="1000" style="fill:none;"/><clipPath id="_clip1"><rect x="0" y="0" width="1000" height="1000"/></clipPath><g clip-path="url(#_clip1)"><g id="Earth-Interior" serif:id="Earth Interior"><ellipse id="Outer-Layer-Real" cx="500" cy="500" rx="500" ry="500" style="fill:url(#_Radial2);"/><path d="M500,-0c275.958,-0 500,224.042 500,500c0,275.958 -224.042,500 -500,500c-275.957,-0 -500,-224.042 -500,-500c0,-275.958 224.043,-500 500,-500Zm0,1c275.406,-0 499,223.594 499,499c0,275.406 -223.594,499 -499,499c-275.406,-0 -499,-223.594 -499,-499c0,-275.406 223.594,-499 499,-499Z" style="fill:#683b00;"/><ellipse cx="500" cy="499.993" rx="431.411" ry="431.411" style="fill:url(#_Radial3);"/><ellipse id="circle819" cx="500" cy="499.993" rx="272.687" ry="272.687" style="fill:url(#_Radial4);"/><ellipse id="circle817" cx="500" cy="499.993" rx="100.2" ry="100.2" style="fill:#effcf7;"/></g><g id="Earth-Interior-MiniPlanet" serif:id="Earth Interior MiniPlanet"><circle cx="500" cy="500" r="500" style="fill:url(#_Radial5);"/><path d="M500,0c275.958,0 500,224.042 500,500c-0,275.958 -224.042,500 -500,500c-275.958,0 -500,-224.042 -500,-500c-0,-275.958 224.042,-500 500,-500Zm-0,2c274.854,0 498,223.146 498,498c-0,274.854 -223.146,498 -498,498c-274.854,0 -498,-223.146 -498,-498c-0,-274.854 223.146,-498 498,-498Z" style="fill:#678c0c;"/><circle cx="500" cy="500" r="500" style="fill:url(#_Radial6);"/><path d="M500,0c275.958,0 500,224.042 500,500c-0,275.958 -224.042,500 -500,500c-275.958,0 -500,-224.042 -500,-500c-0,-275.958 224.042,-500 500,-500Zm-0,1.5c275.13,0 498.5,223.37 498.5,498.5c-0,275.13 -223.37,498.5 -498.5,498.5c-275.13,0 -498.5,-223.37 -498.5,-498.5c-0,-275.13 223.37,-498.5 498.5,-498.5Z" style="fill:#678c0c;"/></g></g><defs><radialGradient id="_Radial2" cx="0" cy="0" r="1" gradientUnits="userSpaceOnUse" gradientTransform="matrix(500,0,0,500,500,500)"><stop offset="0" style="stop-color:#f55900;stop-opacity:1"/><stop offset="0.86" style="stop-color:#dc2b00;stop-opacity:1"/><stop offset="0.93" style="stop-color:#bf1d00;stop-opacity:1"/><stop offset="1" style="stop-color:#b41800;stop-opacity:1"/></radialGradient><radialGradient id="_Radial3" cx="0" cy="0" r="1" gradientUnits="userSpaceOnUse" gradientTransform="matrix(431.411,0,0,431.411,500,499.993)"><stop offset="0" style="stop-color:#ff8700;stop-opacity:1"/><stop offset="0.29" style="stop-color:#ff8600;stop-opacity:1"/><stop offset="0.61" style="stop-color:#fe8400;stop-opacity:1"/><stop offset="1" style="stop-color:#ed3900;stop-opacity:1"/></radialGradient><radialGradient id="_Radial4" cx="0" cy="0" r="1" gradientUnits="userSpaceOnUse" gradientTransform="matrix(272.687,0,0,272.687,500,499.993)"><stop offset="0" style="stop-color:#ffebc5;stop-opacity:1"/><stop offset="0.37" style="stop-color:#ffe8be;stop-opacity:1"/><stop offset="0.67" style="stop-color:#feaf2c;stop-opacity:1"/><stop offset="1" style="stop-color:#fe9e00;stop-opacity:1"/></radialGradient><radialGradient id="_Radial5" cx="0" cy="0" r="1" gradientUnits="userSpaceOnUse" gradientTransform="matrix(500,0,0,500,500,500)"><stop offset="0" style="stop-color:#ffeac2;stop-opacity:1"/><stop offset="0.19" style="stop-color:#fff;stop-opacity:1"/><stop offset="0.2" style="stop-color:#ffe4b3;stop-opacity:1"/><stop offset="0.26" style="stop-color:#fec667;stop-opacity:1"/><stop offset="0.34" style="stop-color:#feab22;stop-opacity:1"/><stop offset="0.63" style="stop-color:#fe8406;stop-opacity:1"/><stop offset="0.63" style="stop-color:#fe8400;stop-opacity:1"/><stop offset="0.71" style="stop-color:#e43700;stop-opacity:1"/><stop offset="0.72" style="stop-color:#dc2e00;stop-opacity:1"/><stop offset="0.76" style="stop-color:#c82300;stop-opacity:1"/><stop offset="0.83" style="stop-color:#982d0c;stop-opacity:1"/><stop offset="0.88" style="stop-color:#833112;stop-opacity:1"/><stop offset="0.97" style="stop-color:#6e3b1d;stop-opacity:1"/><stop offset="1" style="stop-color:#6c4713;stop-opacity:1"/></radialGradient><radialGradient id="_Radial6" cx="0" cy="0" r="1" gradientUnits="userSpaceOnUse" gradientTransform="matrix(500,0,0,500,500,500)"><stop offset="0" style="stop-color:#ffeac2;stop-opacity:1"/><stop offset="0.19" style="stop-color:#fff;stop-opacity:1"/><stop offset="0.2" style="stop-color:#ffe4b3;stop-opacity:1"/><stop offset="0.26" style="stop-color:#fec667;stop-opacity:1"/><stop offset="0.51" style="stop-color:#feab22;stop-opacity:1"/><stop offset="0.77" style="stop-color:#fe6c06;stop-opacity:1"/><stop offset="0.82" style="stop-color:#f74000;stop-opacity:1"/><stop offset="0.88" style="stop-color:#b13718;stop-opacity:1"/><stop offset="0.95" style="stop-color:#804214;stop-opacity:1"/><stop offset="1" style="stop-color:#6c4713;stop-opacity:1"/></radialGradient></defs></svg>