<svg height='300px' width='300px'  fill="#000000" xmlns="http://www.w3.org/2000/svg" xmlns:xlink="http://www.w3.org/1999/xlink" version="1.1" x="0px" y="0px" viewBox="0 0 100 100" enable-background="new 0 0 100 100" xml:space="preserve"><path d="M75,37.5c-0.979,0-1.912,0.194-2.77,0.536C71.364,34.852,68.455,32.5,65,32.5c-1.339,0-2.594,0.356-3.683,0.974  C59.983,31.389,57.653,30,55,30c-0.878,0-1.717,0.159-2.5,0.438V17.5c0-4.136-3.364-7.5-7.499-7.5c-4.136,0-7.5,3.364-7.5,7.5V45  v7.5v3.174l-4.087-7.079c-1.002-1.735-2.619-2.976-4.554-3.494c-1.936-0.521-3.958-0.252-5.69,0.749  c-1.735,1.001-2.976,2.618-3.495,4.554s-0.253,3.956,0.749,5.691l8.75,15.155c0.992,1.718,2.866,3.396,4.678,5.02  c1.264,1.132,3.365,3.014,3.649,3.822L37.5,84.999c0,0.664,0.263,1.3,0.732,1.769S39.337,87.5,40,87.5h35c1.381,0,2.5-1.119,2.5-2.5  v-4.994c0.034-0.656,1.301-2.49,2.057-3.585C81.07,74.229,82.5,72.16,82.5,70V52.5V45C82.5,40.864,79.136,37.5,75,37.5z M77.5,47.5  v4.375V52.5v17.494c-0.034,0.656-1.301,2.49-2.057,3.585C73.93,75.771,72.5,77.84,72.5,80v2.5h-30l0-2.5  c0-2.696-2.581-5.008-5.313-7.455c-1.449-1.298-3.091-2.769-3.684-3.795l-8.75-15.155c-0.334-0.578-0.422-1.252-0.25-1.897  c0.173-0.645,0.586-1.184,1.165-1.518c0.578-0.334,1.25-0.424,1.897-0.25c0.645,0.173,1.184,0.587,1.518,1.165l8.75,15.155  c0.315,0.545,0.804,0.927,1.356,1.115c0.127,0.044,0.259,0.077,0.395,0.101c0,0,0,0,0,0h0c0.265,0.044,0.535,0.047,0.803,0.004  c1.197-0.186,2.113-1.221,2.113-2.47V52.5v-1.25V47.5v-30c0-1.379,1.122-2.5,2.5-2.5c1.378,0,2.499,1.121,2.499,2.5v20v10  c0,0.402,0.104,0.777,0.273,1.113C48.184,49.433,49.021,50,50,50c1.381,0,2.5-1.119,2.5-2.5v-10c0-1.379,1.121-2.5,2.5-2.5  s2.5,1.121,2.5,2.5V40v7.5c0,1.381,1.119,2.5,2.5,2.5c1.171,0,2.146-0.809,2.418-1.896C62.467,47.91,62.5,47.71,62.5,47.5V40  c0-1.379,1.121-2.5,2.5-2.5s2.5,1.121,2.5,2.5v5v4.375V50c0,1.381,1.119,2.5,2.5,2.5c1.171,0,2.146-0.809,2.418-1.896  C72.467,50.41,72.5,50.21,72.5,50v-5c0-1.379,1.121-2.5,2.5-2.5s2.5,1.121,2.5,2.5V47.5z"></path></svg>